<mxfile host="app.diagrams.net" agent="Mozilla/5.0 (X11; Linux x86_64) AppleWebKit/537.36 (KHTML, like Gecko) Chrome/120.0.0.0 Safari/537.36" version="24.8.6">
  <diagram name="Page-1" id="nsleenQH6YUvXUaewXhr">
    <mxGraphModel dx="2230" dy="759" grid="1" gridSize="10" guides="1" tooltips="1" connect="1" arrows="1" fold="1" page="1" pageScale="1" pageWidth="850" pageHeight="1100" math="0" shadow="0">
      <root>
        <mxCell id="0" />
        <mxCell id="1" parent="0" />
        <mxCell id="7jDuigDF2l1jgmHOlD0s-15" value="" style="points=[[0,0],[0.25,0],[0.5,0],[0.75,0],[1,0],[1,0.25],[1,0.5],[1,0.75],[1,1],[0.75,1],[0.5,1],[0.25,1],[0,1],[0,0.75],[0,0.5],[0,0.25]];outlineConnect=0;gradientColor=none;html=1;whiteSpace=wrap;fontSize=12;fontStyle=0;container=1;pointerEvents=0;collapsible=0;recursiveResize=0;shape=mxgraph.aws4.group;grIcon=mxgraph.aws4.group_region;strokeColor=#00A4A6;fillColor=none;verticalAlign=top;align=left;spacingLeft=30;fontColor=#147EBA;dashed=1;" parent="1" vertex="1">
          <mxGeometry x="-70" y="60" width="780" height="500" as="geometry" />
        </mxCell>
        <mxCell id="7jDuigDF2l1jgmHOlD0s-24" value="" style="sketch=0;points=[[0,0,0],[0.25,0,0],[0.5,0,0],[0.75,0,0],[1,0,0],[0,1,0],[0.25,1,0],[0.5,1,0],[0.75,1,0],[1,1,0],[0,0.25,0],[0,0.5,0],[0,0.75,0],[1,0.25,0],[1,0.5,0],[1,0.75,0]];outlineConnect=0;fontColor=#232F3E;fillColor=#ED7100;strokeColor=#ffffff;dashed=0;verticalLabelPosition=bottom;verticalAlign=top;align=center;html=1;fontSize=12;fontStyle=0;aspect=fixed;shape=mxgraph.aws4.resourceIcon;resIcon=mxgraph.aws4.lambda;" parent="7jDuigDF2l1jgmHOlD0s-15" vertex="1">
          <mxGeometry x="30" y="250" width="78" height="78" as="geometry" />
        </mxCell>
        <mxCell id="7jDuigDF2l1jgmHOlD0s-37" value="Weather Data Ingestion" style="text;html=1;align=center;verticalAlign=middle;whiteSpace=wrap;rounded=0;" parent="7jDuigDF2l1jgmHOlD0s-15" vertex="1">
          <mxGeometry x="30" y="220" width="80" height="30" as="geometry" />
        </mxCell>
        <mxCell id="7jDuigDF2l1jgmHOlD0s-27" value="S3 Bucket" style="text;html=1;align=center;verticalAlign=middle;whiteSpace=wrap;rounded=0;" parent="7jDuigDF2l1jgmHOlD0s-15" vertex="1">
          <mxGeometry x="199" y="450" width="60" height="30" as="geometry" />
        </mxCell>
        <mxCell id="DnK7DTsvqn0rKJylp9nt-2" value="Landing Zone" style="text;html=1;align=center;verticalAlign=middle;whiteSpace=wrap;rounded=0;" vertex="1" parent="7jDuigDF2l1jgmHOlD0s-15">
          <mxGeometry x="199" y="340" width="60" height="30" as="geometry" />
        </mxCell>
        <mxCell id="DnK7DTsvqn0rKJylp9nt-3" value="Lambda Function" style="text;html=1;align=center;verticalAlign=middle;whiteSpace=wrap;rounded=0;" vertex="1" parent="7jDuigDF2l1jgmHOlD0s-15">
          <mxGeometry x="39" y="328" width="60" height="30" as="geometry" />
        </mxCell>
        <mxCell id="DnK7DTsvqn0rKJylp9nt-4" value="" style="sketch=0;points=[[0,0,0],[0.25,0,0],[0.5,0,0],[0.75,0,0],[1,0,0],[0,1,0],[0.25,1,0],[0.5,1,0],[0.75,1,0],[1,1,0],[0,0.25,0],[0,0.5,0],[0,0.75,0],[1,0.25,0],[1,0.5,0],[1,0.75,0]];outlineConnect=0;fontColor=#232F3E;fillColor=#ED7100;strokeColor=#ffffff;dashed=0;verticalLabelPosition=bottom;verticalAlign=top;align=center;html=1;fontSize=12;fontStyle=0;aspect=fixed;shape=mxgraph.aws4.resourceIcon;resIcon=mxgraph.aws4.lambda;" vertex="1" parent="7jDuigDF2l1jgmHOlD0s-15">
          <mxGeometry x="350" y="250" width="78" height="78" as="geometry" />
        </mxCell>
        <mxCell id="DnK7DTsvqn0rKJylp9nt-5" value="Insert Data Into A Map" style="text;html=1;align=center;verticalAlign=middle;whiteSpace=wrap;rounded=0;" vertex="1" parent="7jDuigDF2l1jgmHOlD0s-15">
          <mxGeometry x="350" y="220" width="80" height="30" as="geometry" />
        </mxCell>
        <mxCell id="DnK7DTsvqn0rKJylp9nt-6" value="Map Storage" style="text;html=1;align=center;verticalAlign=middle;whiteSpace=wrap;rounded=0;" vertex="1" parent="7jDuigDF2l1jgmHOlD0s-15">
          <mxGeometry x="519" y="340" width="60" height="30" as="geometry" />
        </mxCell>
        <mxCell id="7jDuigDF2l1jgmHOlD0s-22" value="" style="sketch=0;points=[[0,0,0],[0.25,0,0],[0.5,0,0],[0.75,0,0],[1,0,0],[0,1,0],[0.25,1,0],[0.5,1,0],[0.75,1,0],[1,1,0],[0,0.25,0],[0,0.5,0],[0,0.75,0],[1,0.25,0],[1,0.5,0],[1,0.75,0]];outlineConnect=0;fontColor=#232F3E;fillColor=#7AA116;strokeColor=#ffffff;dashed=0;verticalLabelPosition=bottom;verticalAlign=top;align=center;html=1;fontSize=12;fontStyle=0;aspect=fixed;shape=mxgraph.aws4.resourceIcon;resIcon=mxgraph.aws4.s3;" parent="7jDuigDF2l1jgmHOlD0s-15" vertex="1">
          <mxGeometry x="510" y="370" width="78" height="78" as="geometry" />
        </mxCell>
        <mxCell id="w-4qQguMOToHUnGqIZhz-1" value="" style="sketch=0;points=[[0,0,0],[0.25,0,0],[0.5,0,0],[0.75,0,0],[1,0,0],[0,1,0],[0.25,1,0],[0.5,1,0],[0.75,1,0],[1,1,0],[0,0.25,0],[0,0.5,0],[0,0.75,0],[1,0.25,0],[1,0.5,0],[1,0.75,0]];outlineConnect=0;fontColor=#232F3E;fillColor=#E7157B;strokeColor=#ffffff;dashed=0;verticalLabelPosition=bottom;verticalAlign=top;align=center;html=1;fontSize=12;fontStyle=0;aspect=fixed;shape=mxgraph.aws4.resourceIcon;resIcon=mxgraph.aws4.eventbridge;" parent="7jDuigDF2l1jgmHOlD0s-15" vertex="1">
          <mxGeometry x="350" y="50" width="78" height="78" as="geometry" />
        </mxCell>
        <mxCell id="DnK7DTsvqn0rKJylp9nt-7" value="EventBridge" style="text;html=1;align=center;verticalAlign=middle;whiteSpace=wrap;rounded=0;" vertex="1" parent="7jDuigDF2l1jgmHOlD0s-15">
          <mxGeometry x="359" y="128" width="60" height="30" as="geometry" />
        </mxCell>
        <mxCell id="DnK7DTsvqn0rKJylp9nt-8" value="" style="sketch=0;points=[[0,0,0],[0.25,0,0],[0.5,0,0],[0.75,0,0],[1,0,0],[0,1,0],[0.25,1,0],[0.5,1,0],[0.75,1,0],[1,1,0],[0,0.25,0],[0,0.5,0],[0,0.75,0],[1,0.25,0],[1,0.5,0],[1,0.75,0]];outlineConnect=0;fontColor=#232F3E;fillColor=#ED7100;strokeColor=#ffffff;dashed=0;verticalLabelPosition=bottom;verticalAlign=top;align=center;html=1;fontSize=12;fontStyle=0;aspect=fixed;shape=mxgraph.aws4.resourceIcon;resIcon=mxgraph.aws4.lambda;" vertex="1" parent="7jDuigDF2l1jgmHOlD0s-15">
          <mxGeometry x="670" y="250" width="78" height="78" as="geometry" />
        </mxCell>
        <mxCell id="DnK7DTsvqn0rKJylp9nt-9" value="Lambda Scheduler" style="text;html=1;align=center;verticalAlign=middle;whiteSpace=wrap;rounded=0;" vertex="1" parent="7jDuigDF2l1jgmHOlD0s-15">
          <mxGeometry x="359" y="20" width="60" height="30" as="geometry" />
        </mxCell>
        <mxCell id="DnK7DTsvqn0rKJylp9nt-12" value="" style="sketch=0;points=[[0,0,0],[0.25,0,0],[0.5,0,0],[0.75,0,0],[1,0,0],[0,1,0],[0.25,1,0],[0.5,1,0],[0.75,1,0],[1,1,0],[0,0.25,0],[0,0.5,0],[0,0.75,0],[1,0.25,0],[1,0.5,0],[1,0.75,0]];outlineConnect=0;fontColor=#232F3E;fillColor=#7AA116;strokeColor=#ffffff;dashed=0;verticalLabelPosition=bottom;verticalAlign=top;align=center;html=1;fontSize=12;fontStyle=0;aspect=fixed;shape=mxgraph.aws4.resourceIcon;resIcon=mxgraph.aws4.s3;" vertex="1" parent="7jDuigDF2l1jgmHOlD0s-15">
          <mxGeometry x="190" y="370" width="78" height="78" as="geometry" />
        </mxCell>
        <mxCell id="DnK7DTsvqn0rKJylp9nt-13" value="S3 Bucket" style="text;html=1;align=center;verticalAlign=middle;whiteSpace=wrap;rounded=0;" vertex="1" parent="7jDuigDF2l1jgmHOlD0s-15">
          <mxGeometry x="519" y="444" width="60" height="30" as="geometry" />
        </mxCell>
        <mxCell id="DnK7DTsvqn0rKJylp9nt-14" value="Lambda Function" style="text;html=1;align=center;verticalAlign=middle;whiteSpace=wrap;rounded=0;" vertex="1" parent="7jDuigDF2l1jgmHOlD0s-15">
          <mxGeometry x="360" y="328" width="60" height="30" as="geometry" />
        </mxCell>
        <mxCell id="DnK7DTsvqn0rKJylp9nt-15" value="Lambda Function" style="text;html=1;align=center;verticalAlign=middle;whiteSpace=wrap;rounded=0;" vertex="1" parent="7jDuigDF2l1jgmHOlD0s-15">
          <mxGeometry x="679" y="328" width="60" height="30" as="geometry" />
        </mxCell>
        <mxCell id="DnK7DTsvqn0rKJylp9nt-1" value="" style="edgeStyle=elbowEdgeStyle;elbow=horizontal;endArrow=classic;html=1;curved=0;rounded=0;endSize=8;startSize=8;exitX=1;exitY=0.5;exitDx=0;exitDy=0;exitPerimeter=0;entryX=0;entryY=0.5;entryDx=0;entryDy=0;entryPerimeter=0;" edge="1" parent="7jDuigDF2l1jgmHOlD0s-15" source="7jDuigDF2l1jgmHOlD0s-24" target="DnK7DTsvqn0rKJylp9nt-12">
          <mxGeometry width="50" height="50" relative="1" as="geometry">
            <mxPoint x="310" y="350" as="sourcePoint" />
            <mxPoint x="240" y="270.5" as="targetPoint" />
          </mxGeometry>
        </mxCell>
        <mxCell id="DnK7DTsvqn0rKJylp9nt-17" value="" style="edgeStyle=elbowEdgeStyle;elbow=horizontal;endArrow=classic;html=1;curved=0;rounded=0;endSize=8;startSize=8;exitX=1;exitY=0.5;exitDx=0;exitDy=0;exitPerimeter=0;" edge="1" parent="7jDuigDF2l1jgmHOlD0s-15" source="DnK7DTsvqn0rKJylp9nt-4" target="7jDuigDF2l1jgmHOlD0s-22">
          <mxGeometry width="50" height="50" relative="1" as="geometry">
            <mxPoint x="138" y="290" as="sourcePoint" />
            <mxPoint x="244" y="449" as="targetPoint" />
          </mxGeometry>
        </mxCell>
        <mxCell id="DnK7DTsvqn0rKJylp9nt-18" value="" style="edgeStyle=elbowEdgeStyle;elbow=horizontal;endArrow=classic;html=1;curved=0;rounded=0;endSize=8;startSize=8;exitX=1;exitY=0.5;exitDx=0;exitDy=0;exitPerimeter=0;entryX=0;entryY=0.5;entryDx=0;entryDy=0;entryPerimeter=0;" edge="1" parent="7jDuigDF2l1jgmHOlD0s-15" source="DnK7DTsvqn0rKJylp9nt-12" target="DnK7DTsvqn0rKJylp9nt-4">
          <mxGeometry width="50" height="50" relative="1" as="geometry">
            <mxPoint x="138" y="290" as="sourcePoint" />
            <mxPoint x="244" y="449" as="targetPoint" />
          </mxGeometry>
        </mxCell>
        <mxCell id="DnK7DTsvqn0rKJylp9nt-19" value="" style="edgeStyle=elbowEdgeStyle;elbow=horizontal;endArrow=classic;html=1;curved=0;rounded=0;endSize=8;startSize=8;exitX=1;exitY=0.5;exitDx=0;exitDy=0;exitPerimeter=0;entryX=0;entryY=0.5;entryDx=0;entryDy=0;entryPerimeter=0;" edge="1" parent="7jDuigDF2l1jgmHOlD0s-15" source="7jDuigDF2l1jgmHOlD0s-22" target="DnK7DTsvqn0rKJylp9nt-8">
          <mxGeometry width="50" height="50" relative="1" as="geometry">
            <mxPoint x="570" y="430" as="sourcePoint" />
            <mxPoint x="652" y="310" as="targetPoint" />
          </mxGeometry>
        </mxCell>
        <mxCell id="DnK7DTsvqn0rKJylp9nt-20" value="Display Map At Endpoint" style="text;html=1;align=center;verticalAlign=middle;whiteSpace=wrap;rounded=0;" vertex="1" parent="7jDuigDF2l1jgmHOlD0s-15">
          <mxGeometry x="670" y="220" width="80" height="30" as="geometry" />
        </mxCell>
        <mxCell id="DnK7DTsvqn0rKJylp9nt-21" value="Raw Weather Data" style="text;html=1;align=center;verticalAlign=middle;whiteSpace=wrap;rounded=0;" vertex="1" parent="7jDuigDF2l1jgmHOlD0s-15">
          <mxGeometry x="130" y="270" width="80" height="30" as="geometry" />
        </mxCell>
        <mxCell id="DnK7DTsvqn0rKJylp9nt-24" value="Data in Map form (HTML)" style="text;html=1;align=center;verticalAlign=middle;whiteSpace=wrap;rounded=0;" vertex="1" parent="7jDuigDF2l1jgmHOlD0s-15">
          <mxGeometry x="438" y="257" width="80" height="30" as="geometry" />
        </mxCell>
        <mxCell id="DnK7DTsvqn0rKJylp9nt-27" value="" style="edgeStyle=elbowEdgeStyle;elbow=horizontal;endArrow=classic;html=1;curved=0;rounded=0;endSize=8;startSize=8;entryX=0;entryY=0.5;entryDx=0;entryDy=0;entryPerimeter=0;" edge="1" parent="7jDuigDF2l1jgmHOlD0s-15" source="DnK7DTsvqn0rKJylp9nt-8">
          <mxGeometry width="50" height="50" relative="1" as="geometry">
            <mxPoint x="700" y="320" as="sourcePoint" />
            <mxPoint x="880" y="289" as="targetPoint" />
          </mxGeometry>
        </mxCell>
        <mxCell id="7jDuigDF2l1jgmHOlD0s-14" value="" style="sketch=0;outlineConnect=0;fontColor=#232F3E;gradientColor=none;strokeColor=#232F3E;fillColor=#ffffff;dashed=0;verticalLabelPosition=bottom;verticalAlign=top;align=center;html=1;fontSize=12;fontStyle=0;aspect=fixed;shape=mxgraph.aws4.resourceIcon;resIcon=mxgraph.aws4.aws_cloud;" parent="7jDuigDF2l1jgmHOlD0s-15" vertex="1">
          <mxGeometry width="60" height="60" as="geometry" />
        </mxCell>
        <mxCell id="DnK7DTsvqn0rKJylp9nt-26" value="" style="verticalLabelPosition=bottom;html=1;verticalAlign=top;align=center;strokeColor=none;fillColor=#00BEF2;shape=mxgraph.azure.website_generic;pointerEvents=1;" vertex="1" parent="1">
          <mxGeometry x="810" y="309" width="120" height="100" as="geometry" />
        </mxCell>
        <mxCell id="DnK7DTsvqn0rKJylp9nt-28" value="Function URL" style="text;html=1;align=center;verticalAlign=middle;whiteSpace=wrap;rounded=0;" vertex="1" parent="1">
          <mxGeometry x="830" y="279" width="60" height="30" as="geometry" />
        </mxCell>
        <mxCell id="DnK7DTsvqn0rKJylp9nt-31" value="" style="verticalLabelPosition=bottom;html=1;verticalAlign=top;align=center;strokeColor=none;fillColor=#00BEF2;shape=mxgraph.azure.website_generic;pointerEvents=1;" vertex="1" parent="1">
          <mxGeometry x="-290" y="179" width="120" height="100" as="geometry" />
        </mxCell>
        <mxCell id="DnK7DTsvqn0rKJylp9nt-32" value="Public Website" style="text;html=1;align=center;verticalAlign=middle;whiteSpace=wrap;rounded=0;" vertex="1" parent="1">
          <mxGeometry x="-270" y="149" width="60" height="30" as="geometry" />
        </mxCell>
        <mxCell id="DnK7DTsvqn0rKJylp9nt-34" value="API" style="text;html=1;align=center;verticalAlign=middle;whiteSpace=wrap;rounded=0;" vertex="1" parent="1">
          <mxGeometry x="-270" y="330" width="60" height="30" as="geometry" />
        </mxCell>
        <mxCell id="DnK7DTsvqn0rKJylp9nt-38" value="" style="aspect=fixed;sketch=0;html=1;dashed=0;whitespace=wrap;verticalLabelPosition=bottom;verticalAlign=top;fillColor=#2875E2;strokeColor=#ffffff;points=[[0.005,0.63,0],[0.1,0.2,0],[0.9,0.2,0],[0.5,0,0],[0.995,0.63,0],[0.72,0.99,0],[0.5,1,0],[0.28,0.99,0]];shape=mxgraph.kubernetes.icon2;prIcon=api" vertex="1" parent="1">
          <mxGeometry x="-290" y="360" width="104.17" height="100" as="geometry" />
        </mxCell>
        <mxCell id="DnK7DTsvqn0rKJylp9nt-39" value="" style="edgeStyle=elbowEdgeStyle;elbow=horizontal;endArrow=classic;html=1;curved=0;rounded=0;endSize=8;startSize=8;exitX=0.995;exitY=0.63;exitDx=0;exitDy=0;exitPerimeter=0;entryX=0;entryY=0.75;entryDx=0;entryDy=0;entryPerimeter=0;" edge="1" parent="1" source="DnK7DTsvqn0rKJylp9nt-38" target="7jDuigDF2l1jgmHOlD0s-24">
          <mxGeometry width="50" height="50" relative="1" as="geometry">
            <mxPoint x="-170" y="390" as="sourcePoint" />
            <mxPoint x="-88" y="510" as="targetPoint" />
            <Array as="points">
              <mxPoint x="-120" y="390" />
            </Array>
          </mxGeometry>
        </mxCell>
        <mxCell id="DnK7DTsvqn0rKJylp9nt-40" value="" style="edgeStyle=elbowEdgeStyle;elbow=horizontal;endArrow=classic;html=1;curved=0;rounded=0;endSize=8;startSize=8;entryX=0;entryY=0.25;entryDx=0;entryDy=0;entryPerimeter=0;exitX=0.92;exitY=0.5;exitDx=0;exitDy=0;exitPerimeter=0;" edge="1" parent="1" source="DnK7DTsvqn0rKJylp9nt-31" target="7jDuigDF2l1jgmHOlD0s-24">
          <mxGeometry width="50" height="50" relative="1" as="geometry">
            <mxPoint x="-166" y="217" as="sourcePoint" />
            <mxPoint x="-30" y="379" as="targetPoint" />
            <Array as="points">
              <mxPoint x="-120" y="280" />
            </Array>
          </mxGeometry>
        </mxCell>
      </root>
    </mxGraphModel>
  </diagram>
</mxfile>
